#!OML:ASF H:\Male1\Project 1\Capture day 1\Session 1\Male1.ASF
:FULLY-SPECIFIED
:DEGREES
161
root 21.4745 15.1803 -0.548192 4.20819 -38.0037 0.486696
lowerback 20.8308 3.87201 0.734324
upperback 13.7306 4.64389 3.51463
thorax 3.09733 2.03282 2.50979
lowerneck -7.2405 -8.73497 -0.642797
upperneck -1.30991 -12.1369 18.3534
head 2.04911 -5.81252 5.05468
rclavicle 1.59028e-014 9.54166e-015
rhumerus -25.7758 43.6922 -93.2998
rradius 82.9471
rwrist -79.1698
rhand -39.9296 -24.4607
rfingers 7.12502
rthumb -12.8999 -54.042
lclavicle 1.59028e-014 9.54166e-015
lhumerus -56.2572 -29.9906 85.089
lradius 108.676
lwrist 9.95392
lhand -17.3419 28.5006
lfingers 7.12502
lthumb 8.90546 58.2926
rfemur -28.5603 -8.98981 25.4188
rtibia 52.1163
rfoot -18.5566 -14.5981
rtoes -39.8472
lfemur -24.4869 -10.5613 -22.0924
ltibia 36.9501
lfoot -17.7296 6.49596
ltoes -6.65227
162
root 21.4315 15.1862 -0.550984 3.9659 -38.23 0.854424
lowerback 21.0839 3.89025 0.49451
upperback 13.8373 4.61844 3.54851
thorax 3.07178 1.99805 2.67572
lowerneck -7.31163 -8.69999 -0.72461
upperneck -1.41256 -12.0674 18.2846
head 2.0241 -5.78308 5.05066
rclavicle 1.19271e-014 -6.04305e-014
rhumerus -26.2091 44.26 -93.556
rradius 83.7459
rwrist -79.5231
rhand -40.531 -24.1521
rfingers 7.12502
rthumb -13.4796 -53.6959
lclavicle 1.19271e-014 -6.04305e-014
lhumerus -57.3886 -28.9148 85.004
lradius 109.713
lwrist 10.2707
lhand -17.1492 28.6178
lfingers 7.12502
lthumb 9.09133 58.4018
rfemur -29.8 -9.65845 24.5613
rtibia 54.0236
rfoot -17.7284 -13.2357
rtoes -40.9231
lfemur -24.1047 -10.2605 -22.3075
ltibia 36.5239
lfoot -17.7109 6.47379
ltoes -6.81023
163
root 21.3858 15.1987 -0.555906 3.79906 -38.4051 1.13081
lowerback 21.2993 3.89703 0.343032
upperback 13.9566 4.59034 3.63261
thorax 3.08292 1.96479 2.84966
lowerneck -7.3827 -8.67678 -0.812068
upperneck -1.51008 -12.014 18.2195
head 2.00272 -5.76086 5.04743
rclavicle 7.4743e-014 0
rhumerus -26.352 44.736 -93.5329
rradius 84.3833
rwrist -79.882
rhand -41.1206 -23.7498
rfingers 7.12502
rthumb -14.0479 -53.2551
lclavicle 7.4743e-014 0
lhumerus -58.1222 -27.9873 85.0611
lradius 110.459
lwrist 10.524
lhand -17.0159 29.0175
lfingers 7.12502
lthumb 9.22004 58.7959
rfemur -30.823 -10.0233 23.6553
rtibia 55.4155
rfoot -17.2475 -12.5254
rtoes -41.0045
lfemur -23.7025 -9.99939 -22.4171
ltibia 36.0114
lfoot -17.6532 6.44231
ltoes -6.99677
164
root 21.3358 15.2172 -0.561973 3.71024 -38.542 1.31638
lowerback 21.4749 3.91778 0.314029
upperback 14.0728 4.59999 3.7376
thorax 3.11707 1.95763 2.97286
lowerneck -7.43365 -8.69078 -0.800067
upperneck -1.62046 -12.015 18.1492
head 1.97278 -5.76772 5.02476
rclavicle 6.2816e-014 -1.27222e-014
rhumerus -26.2057 44.9688 -93.2462
rradius 84.8356
rwrist -80.1155
rhand -41.5107 -23.4771
rfingers 7.12502
rthumb -14.4237 -52.9559
lclavicle 6.2816e-014 -1.27222e-014
lhumerus -58.4576 -27.3574 85.2394
lradius 110.933
lwrist 10.7311
lhand -16.8483 29.4177
lfingers 7.12502
lthumb 9.38175 59.1889
rfemur -31.6042 -10.1077 22.7003
rtibia 56.2258
rfoot -17.0485 -12.5021
rtoes -40.262
lfemur -23.271 -9.75957 -22.4226
ltibia 35.406
lfoot -17.5523 6.40325
ltoes -7.25296
165
root 21.282 15.2401 -0.569111 3.67465 -38.6158 1.44663
lowerback 21.625 3.94361 0.394803
upperback 14.1793 4.63533 3.85242
thorax 3.15944 1.97078 3.04148
lowerneck -7.47198 -8.74565 -0.656212
upperneck -1.74349 -12.0776 18.0564
head 1.93286 -5.8074 4.97184
rclavicle 6.04305e-014 -5.08889e-014
rhumerus -25.8817 44.9281 -92.7648
rradius 85.1444
rwrist -80.2138
rhand -41.7673 -23.3381
rfingers 7.12502
rthumb -14.671 -52.799
lclavicle 6.04305e-014 -5.08889e-014
lhumerus -58.3975 -27.0452 85.5352
lradius 111.144
lwrist 10.9313
lhand -16.5704 29.6544
lfingers 7.12502
lthumb 9.64985 59.4134
rfemur -32.1491 -10.0055 21.6762
rtibia 56.4514
rfoot -17.0341 -13.0771
rtoes -39.0165
lfemur -22.8116 -9.57967 -22.3578
ltibia 34.7096
lfoot -17.3942 6.36948
ltoes -7.60882
166
root 21.2242 15.2658 -0.577201 3.68011 -38.6297 1.54998
lowerback 21.7499 3.96486 0.558231
upperback 14.2661 4.68064 3.96526
thorax 3.19845 1.99558 3.06039
lowerneck -7.50461 -8.83342 -0.396311
upperneck -1.85495 -12.1941 17.9425
head 1.89124 -5.87402 4.89147
rclavicle -2.70347e-014 9.54166e-015
rhumerus -25.4392 44.6131 -92.1297
rradius 85.3152
rwrist -80.1468
rhand -41.7692 -23.4335
rfingers 7.12502
rthumb -14.6728 -52.8944
lclavicle -2.70347e-014 9.54166e-015
lhumerus -57.9797 -27.0256 85.9433
lradius 111.115
lwrist 11.1637
lhand -16.1665 29.6914
lfingers 7.12502
lthumb 10.0395 59.432
rfemur -32.4785 -9.76978 20.5847
rtibia 56.1313
rfoot -17.136 -14.1038
rtoes -37.6038
lfemur -22.3372 -9.48775 -22.2457
ltibia 33.935
lfoot -17.1771 6.36922
ltoes -8.08159
167
root 21.1627 15.2922 -0.586451 3.70927 -38.6047 1.65354
lowerback 21.846 3.95457 0.720162
upperback 14.3278 4.68767 4.09039
thorax 3.22423 2.00141 3.10098
lowerneck -7.50908 -8.9154 -0.138115
upperneck -1.92868 -12.306 17.8089
head 1.8538 -5.93725 4.80667
rclavicle -1.06549e-013 6.67916e-014
rhumerus -24.9265 44.2014 -91.3519
rradius 85.345
rwrist -79.9563
rhand -41.6887 -23.6334
rfingers 7.12502
rthumb -14.5952 -53.0999
lclavicle -1.06549e-013 6.67916e-014
lhumerus -57.2911 -27.1229 86.4985
lradius 110.872
lwrist 11.4145
lhand -15.6596 29.6218
lfingers 7.12502
lthumb 10.5285 59.3381
rfemur -32.6193 -9.42185 19.4322
rtibia 55.3296
rfoot -17.3096 -15.3979
rtoes -36.3653
lfemur -21.8605 -9.50291 -22.1079
ltibia 33.1064
lfoot -16.9158 6.45024
ltoes -8.73534
168
root 21.0976 15.3175 -0.597267 3.73938 -38.5791 1.78897
lowerback 21.911 3.91274 0.820721
upperback 14.3705 4.64556 4.22533
thorax 3.2407 1.97846 3.19658
lowerneck -7.47675 -8.97495 0.0412301
upperneck -1.9747 -12.3839 17.679
head 1.82036 -5.98294 4.73856
rclavicle 3.65764e-014 -1.90833e-014
rhumerus -24.245 43.8065 -90.3596
rradius 85.2059
rwrist -79.7901
rhand -41.5538 -23.9487
rfingers 7.12502
rthumb -14.4653 -53.4245
lclavicle 3.65764e-014 -1.90833e-014
lhumerus -56.3648 -27.2411 87.1989
lradius 110.409
lwrist 11.6225
lhand -15.2033 29.7668
lfingers 7.12502
lthumb 10.9687 59.4602
rfemur -32.6036 -8.95258 18.2155
rtibia 54.1118
rfoot -17.5505 -16.7704
rtoes -35.1937
lfemur -21.3894 -9.6107 -21.9705
ltibia 32.2536
lfoot -16.6446 6.63094
ltoes -9.51399
169
root 21.0293 15.3407 -0.609877 3.76052 -38.5727 1.97081
lowerback 21.9482 3.81633 0.805708
upperback 14.3919 4.51541 4.38284
thorax 3.24065 1.9026 3.39852
lowerneck -7.36788 -8.97991 0.0129397
upperneck -1.99788 -12.3734 17.5822
head 1.78888 -5.98506 4.72053
rclavicle 5.40694e-014 -6.36111e-015
rhumerus -23.4454 43.6056 -89.1804
rradius 84.9033
rwrist -79.7956
rhand -41.4717 -24.1693
rfingers 7.12502
rthumb -14.3862 -53.6508
lclavicle 5.40694e-014 -6.36111e-015
lhumerus -55.2732 -27.2408 88.0764
lradius 109.741
lwrist 11.7011
lhand -14.8302 30.0975
lfingers 7.12502
lthumb 11.3286 59.7715
rfemur -32.4537 -8.34835 16.9357
rtibia 52.5328
rfoot -17.8666 -18.0884
rtoes -33.84
lfemur -20.9367 -9.77444 -21.8469
ltibia 31.408
lfoot -16.3891 6.8638
ltoes -10.2424
170
root 20.958 15.3616 -0.624662 3.78702 -38.5996 2.17766
lowerback 21.9637 3.68298 0.721282
upperback 14.3924 4.32739 4.54439
thorax 3.22656 1.79303 3.65538
lowerneck -7.20061 -8.94505 -0.176664
upperneck -2.02391 -12.2959 17.5262
head 1.75438 -5.95549 4.74602
rclavicle -5.08889e-014 3.81667e-014
rhumerus -22.4964 43.4601 -87.8224
rradius 84.4398
rwrist -79.9448
rhand -41.354 -24.4764
rfingers 7.12502
rthumb -14.2728 -53.9659
lclavicle -5.08889e-014 3.81667e-014
lhumerus -54.009 -27.2323 89.0794
lradius 108.887
lwrist 11.6386
lhand -14.6373 30.6441
lfingers 7.12502
lthumb 11.5146 60.3078
rfemur -32.185 -7.57517 15.6212
rtibia 50.6338
rfoot -18.2139 -19.3091
rtoes -32.1882
lfemur -20.5142 -9.94466 -21.7187
ltibia 30.5921
lfoot -16.1636 7.09042
ltoes -10.7851
171
root 20.8833 15.3806 -0.641714 3.83426 -38.6566 2.37225
lowerback 21.9661 3.52907 0.64207
upperback 14.3783 4.11443 4.69143
thorax 3.20746 1.67218 3.8991
lowerneck -7.00927 -8.89152 -0.45212
upperneck -2.06777 -12.1865 17.5183
head 1.71668 -5.91135 4.80233
rclavicle 3.18055e-015 2.8625e-014
rhumerus -21.4063 43.2651 -86.3344
rradius 83.8462
rwrist -80.3646
rhand -41.3433 -24.7112
rfingers 7.12502
rthumb -14.2624 -54.2014
lclavicle 3.18055e-015 2.8625e-014
lhumerus -52.545 -27.3621 90.1354
lradius 107.868
lwrist 11.4842
lhand -14.3013 30.954
lfingers 7.12502
lthumb 11.8386 60.5994
rfemur -31.7996 -6.61199 14.3094
rtibia 48.4534
rfoot -18.5111 -20.4371
rtoes -30.1645
lfemur -20.1216 -10.0897 -21.5556
ltibia 29.8219
lfoot -15.9822 7.27453
ltoes -11.0841
